<?xml version="1.0" encoding="UTF-8" standalone="no"?>
<svg
   xmlns:dc="http://purl.org/dc/elements/1.1/"
   xmlns:cc="http://creativecommons.org/ns#"
   xmlns:rdf="http://www.w3.org/1999/02/22-rdf-syntax-ns#"
   xmlns:svg="http://www.w3.org/2000/svg"
   xmlns="http://www.w3.org/2000/svg"
   xmlns:sodipodi="http://sodipodi.sourceforge.net/DTD/sodipodi-0.dtd"
   xmlns:inkscape="http://www.inkscape.org/namespaces/inkscape"
   version="1.0"
   width="48.000000pt"
   height="48.000000pt"
   viewBox="0 0 48.000000 48.000000"
   preserveAspectRatio="xMidYMid meet"
   id="svg14"
   sodipodi:docname="favicon.svg"
   inkscape:version="0.92.4 (5da689c313, 2019-01-14)">
  <metadata
     id="metadata20">
    <rdf:RDF>
      <cc:Work
         rdf:about="">
        <dc:format>image/svg+xml</dc:format>
        <dc:type
           rdf:resource="http://purl.org/dc/dcmitype/StillImage" />
        <dc:title></dc:title>
      </cc:Work>
    </rdf:RDF>
  </metadata>
  <defs
     id="defs18" />
  <sodipodi:namedview
     pagecolor="#ffffff"
     bordercolor="#666666"
     borderopacity="1"
     objecttolerance="10"
     gridtolerance="10"
     guidetolerance="10"
     inkscape:pageopacity="0"
     inkscape:pageshadow="2"
     inkscape:window-width="732"
     inkscape:window-height="480"
     id="namedview16"
     showgrid="false"
     inkscape:zoom="3.6875"
     inkscape:cx="32"
     inkscape:cy="32"
     inkscape:window-x="0"
     inkscape:window-y="0"
     inkscape:window-maximized="0"
     inkscape:current-layer="svg14" />
  <g
     transform="translate(0.000000,48.000000) scale(0.100000,-0.100000)"
     fill="#000000"
     stroke="none"
     id="g12">
    <path
       d="M0 319 c0 -54 18 -129 31 -129 8 0 59 145 59 168 0 8 -16 12 -45 12 l-45 0 0 -51z"
       id="path2" />
    <path
       d="M130 358 c0 -23 51 -168 59 -168 5 0 18 35 31 78 13 42 25 83 27 90 4 9 -11 12 -56 12 -42 0 -61 -4 -61 -12z"
       id="path4" />
    <path
       d="M285 358 c-23 -62 -75 -225 -75 -235 0 -10 22 -13 85 -13 l85 0 0 130 0 130 -45 0 c-27 0 -47 -5 -50 -12z"
       id="path6" />
    <path
       d="M430 240 l0 -130 25 0 25 0 0 130 0 130 -25 0 -25 0 0 -130z"
       id="path8" />
    <path
       d="M80 223 c-12 -32 -24 -70 -27 -85 l-5 -28 61 0 c33 0 61 3 61 7 0 20 -53 163 -60 163 -5 0 -18 -26 -30 -57z"
       id="path10" />
  </g>
</svg>
