<?xml version="1.0" encoding="UTF-8" standalone="no"?>
<svg
   version="1.0"
   width="720.000000pt"
   height="143.000000pt"
   viewBox="0 0 720.000000 143.000000"
   preserveAspectRatio="xMidYMid meet"
   id="svg26"
   sodipodi:docname="logo.svg"
   inkscape:version="1.1.2 (0a00cf5339, 2022-02-04)"
   xmlns:inkscape="http://www.inkscape.org/namespaces/inkscape"
   xmlns:sodipodi="http://sodipodi.sourceforge.net/DTD/sodipodi-0.dtd"
   xmlns="http://www.w3.org/2000/svg"
   xmlns:svg="http://www.w3.org/2000/svg">
  <defs
     id="defs30" />
  <sodipodi:namedview
     id="namedview28"
     pagecolor="#ffffff"
     bordercolor="#666666"
     borderopacity="1.0"
     inkscape:pageshadow="2"
     inkscape:pageopacity="0.0"
     inkscape:pagecheckerboard="0"
     inkscape:document-units="pt"
     showgrid="false"
     inkscape:zoom="1.4770833"
     inkscape:cx="479.6615"
     inkscape:cy="95.458392"
     inkscape:window-width="1920"
     inkscape:window-height="985"
     inkscape:window-x="0"
     inkscape:window-y="0"
     inkscape:window-maximized="1"
     inkscape:current-layer="svg26" />
  <g
     transform="translate(0.000000,143.000000) scale(0.100000,-0.100000)"
     fill="#000000"
     stroke="none"
     id="g24">
    <path
       d="M4638 1362 c-48 -29 -58 -66 -58 -207 l0 -127 81 -266 c45 -147 83 -268 84 -270 2 -2 67 190 144 427 78 236 144 437 147 446 5 13 -16 15 -182 15 -160 0 -193 -3 -216 -18z"
       id="path2" />
    <path
       d="M5459 936 c80 -244 149 -439 152 -432 5 8 208 666 265 859 5 16 -13 17 -279 17 l-285 0 147 -444z"
       id="path4" />
    <path
       d="M5973 720 l-222 -660 414 0 415 0 0 660 0 660 -192 0 -193 0 -222 -660z"
       id="path6" />
    <path
       d="M6960 720 l0 -660 73 0 c84 0 113 12 144 59 l23 35 -2 579 -3 579 -37 34 c-36 33 -41 34 -118 34 l-80 0 0 -660z"
       id="path8" />
    <path
       d="M1967 986 c-71 -167 -131 -314 -134 -326 -5 -20 -3 -21 63 -18 l69 3 26 70 27 70 139 0 138 0 29 -72 28 -73 69 0 c38 0 69 3 69 8 0 4 -60 149 -134 322 l-133 315 -64 3 -64 3 -128 -305z m232 35 c22 -55 41 -102 41 -105 0 -3 -39 -6 -86 -6 -65 0 -85 3 -81 13 33 81 81 197 83 197 1 0 20 -45 43 -99z"
       id="path10" />
    <path
       d="M111 963 l106 -318 63 0 62 0 71 203 c38 112 73 200 77 195 4 -4 20 -46 35 -93 15 -47 46 -136 68 -198 l39 -113 62 3 61 3 107 315 c59 173 107 316 107 318 1 1 -32 2 -71 2 l-73 0 -64 -211 c-35 -115 -67 -206 -71 -202 -4 4 -38 99 -75 211 l-67 203 -61 -3 -60 -3 -70 -208 c-38 -115 -73 -205 -77 -200 -4 4 -19 49 -34 98 -15 50 -43 141 -62 203 l-35 112 -73 0 -72 0 107 -317z"
       id="path12" />
    <path
       d="M1170 960 l0 -320 240 0 240 0 0 65 0 65 -170 0 -170 0 0 70 0 70 150 0 150 0 0 60 0 60 -150 0 -150 0 0 65 0 65 170 0 170 0 0 60 0 60 -240 0 -240 0 0 -320z"
       id="path14" />
    <path
       d="M2690 960 l0 -320 228 2 227 3 3 63 3 62 -161 0 -160 0 0 255 0 255 -70 0 -70 0 0 -320z"
       id="path16" />
    <path
       d="M3210 1215 l0 -65 100 0 100 0 0 -255 0 -255 65 0 65 0 0 255 0 255 100 0 100 0 0 65 0 65 -265 0 -265 0 0 -65z"
       id="path18" />
    <path
       d="M3940 965 l0 -315 70 0 70 0 0 125 0 125 130 0 129 0 3 -127 3 -128 68 -3 67 -3 0 321 0 320 -70 0 -70 0 0 -125 0 -125 -130 0 -130 0 0 125 0 125 -70 0 -70 0 0 -315z"
       id="path20" />
    <path
       d="M5161 879 c-6 -19 -71 -209 -145 -424 -74 -214 -133 -391 -132 -393 2 -1 133 -1 293 0 l290 3 -147 424 c-142 407 -148 423 -159 390z"
       id="path22" />
  </g>
  <text
     xml:space="preserve"
     style="font-style:normal;font-variant:normal;font-weight:bold;font-stretch:normal;font-size:48px;line-height:1.25;font-family:sans-serif;-inkscape-font-specification:'sans-serif Bold';fill:#000000;fill-opacity:1;stroke:none;stroke-width:0.75"
     x="49.760223"
     y="129.47815"
     id="text6590"><tspan
       sodipodi:role="line"
       id="tspan6588"
       style="font-style:normal;font-variant:normal;font-weight:bold;font-stretch:normal;font-size:48px;font-family:sans-serif;-inkscape-font-specification:'sans-serif Bold';stroke-width:0.75"
       x="49.760223"
       y="129.47815">INNOVATIONS</tspan></text>
</svg>
